<?xml version="1.0" encoding="UTF-8"?>
<!DOCTYPE svg PUBLIC "-//W3C//DTD SVG 1.1//EN" "http://www.w3.org/Graphics/SVG/1.1/DTD/svg11.dtd">
<!-- Creator: CorelDRAW 2026 -->
<svg xmlns="http://www.w3.org/2000/svg" xml:space="preserve" width="5.4186mm" height="5.4186mm" version="1.1" style="shape-rendering:geometricPrecision; text-rendering:geometricPrecision; image-rendering:optimizeQuality; fill-rule:evenodd; clip-rule:evenodd"
viewBox="0 0 541.86 541.86"
 xmlns:xlink="http://www.w3.org/1999/xlink"
 xmlns:xodm="http://www.corel.com/coreldraw/odm/2003"
 xmlns:svg="http://www.w3.org/2000/svg">
 <defs>
  <style type="text/css">
   <![CDATA[
    .str0 {stroke:#373435;stroke-width:15;stroke-linecap:round;stroke-linejoin:round;stroke-miterlimit:22.9256}
    .str1 {stroke:#373435;stroke-width:15;stroke-linejoin:round;stroke-miterlimit:22.9256;stroke-dasharray:26.450000 26.450000}
    .fil3 {fill:none}
    .fil0 {fill:#D2D3D5}
    .fil1 {fill:#96989A}
    .fil2 {fill:#606062}
    .fil4 {fill:#00AFEF}
   ]]>
  </style>
 </defs>
 <g id="Camada_x0020_1">
  <metadata id="CorelCorpID_0Corel-Layer"/>
  <polygon class="fil0 str0" points="67.84,148.97 229.56,339.7 474.02,202.69 303.7,25.39 "/>
  <polygon class="fil1 str0" points="243.82,516.03 89.87,331.1 68.13,148.53 229.56,339.7 "/>
  <polygon class="fil2 str0" points="474.02,202.69 229.56,339.7 243.53,516.47 468.65,383.76 "/>
  <path id="path2" class="fil3 str1" d="M96.12 333.1l217.8 -116.62m0 0l-7.73 -183.04m7.73 183.04l152.92 163.74"/>
  <path class="fil4" d="M474.13 -0.01l-186.28 0c-37.42,0 -67.74,30.32 -67.74,67.74 0,37.42 30.32,67.74 67.74,67.74l0 -0.02 1.74 0 182.8 0 1.74 0 0 0.02c37.42,0 67.74,-30.32 67.74,-67.74 0,-37.42 -30.32,-67.74 -67.74,-67.74zm0.02 110.06c23.38,0 42.32,-18.94 42.32,-42.32 0,-23.38 -18.94,-42.34 -42.32,-42.34 -23.38,0 -42.34,18.96 -42.34,42.34 0,23.38 18.96,42.32 42.34,42.32z"/>
 </g>
</svg>
